<svg xmlns="http://www.w3.org/2000/svg" width="256" height="256" viewBox="0 0 100 100"><rect width="100" height="100" rx="50" fill="#14086d"></rect><path fill="#fff" d="M37.64 66.41L34.94 58.43L18.86 58.43Q18.44 59.63 17.96 61.04Q17.48 62.45 17.03 63.80Q16.58 65.15 16.16 66.32Q15.74 67.49 15.50 68.27L15.50 68.27Q14.66 68.63 13.52 68.63L13.52 68.63Q12.56 68.63 11.81 68.12Q11.06 67.61 11.06 66.47L11.06 66.47Q11.06 65.93 11.24 65.36Q11.42 64.79 11.66 64.13L11.66 64.13Q12.56 61.61 13.97 57.65Q15.38 53.69 17.03 49.22Q18.68 44.75 20.39 40.22Q22.10 35.69 23.54 32.09L23.54 32.09Q24.02 31.85 24.98 31.61Q25.94 31.37 26.96 31.37L26.96 31.37Q28.16 31.37 29.27 31.73Q30.38 32.09 30.68 32.93L30.68 32.93Q32.12 36.41 33.77 40.88Q35.42 45.35 37.10 50.03Q38.78 54.71 40.31 59.24Q41.84 63.77 43.04 67.43L43.04 67.43Q42.56 67.97 41.90 68.30Q41.24 68.63 40.40 68.63L40.40 68.63Q39.26 68.63 38.66 68.12Q38.06 67.61 37.64 66.41L37.64 66.41ZM27.14 35.45L26.90 35.45Q26.24 37.25 25.40 39.56Q24.56 41.87 23.66 44.39Q22.76 46.91 21.86 49.49Q20.96 52.07 20.18 54.41L20.18 54.41L33.68 54.41Q32.78 51.71 31.82 48.98Q30.86 46.25 29.99 43.73Q29.12 41.21 28.37 39.08Q27.62 36.95 27.14 35.45L27.14 35.45ZM55.04 68.03L55.04 68.03Q54.74 68.15 54.14 68.30Q53.54 68.45 52.82 68.45L52.82 68.45Q50.18 68.45 50.18 66.23L50.18 66.23L50.18 31.79Q50.48 31.67 51.11 31.52Q51.74 31.37 52.46 31.37L52.46 31.37Q55.04 31.37 55.04 33.59L55.04 33.59L55.04 68.03ZM68.48 31.67L88.40 31.67Q88.58 31.97 88.76 32.48Q88.94 32.99 88.94 33.59L88.94 33.59Q88.94 34.61 88.46 35.21Q87.98 35.81 87.08 35.81L87.08 35.81L70.76 35.81L70.76 48.29L86.30 48.29Q86.48 48.59 86.66 49.10Q86.84 49.61 86.84 50.21L86.84 50.21Q86.84 51.23 86.36 51.83Q85.88 52.43 84.98 52.43L84.98 52.43L70.76 52.43L70.76 68.09Q70.46 68.21 69.83 68.33Q69.20 68.45 68.54 68.45L68.54 68.45Q65.84 68.45 65.84 66.29L65.84 66.29L65.84 34.31Q65.84 33.11 66.56 32.39Q67.28 31.67 68.48 31.67L68.48 31.67Z"></path></svg>