<?xml version="1.0" standalone="no"?>
<!DOCTYPE svg PUBLIC "-//W3C//DTD SVG 20010904//EN"
 "http://www.w3.org/TR/2001/REC-SVG-20010904/DTD/svg10.dtd">
<svg version="1.0" xmlns="http://www.w3.org/2000/svg"
 width="213.11777" height="172.51614" viewBox="0 0 1260.000000 1557.000000"
 preserveAspectRatio="xMidYMid meet">
<metadata>
Created by potrace 1.16, written by Peter Selinger 2001-2019
</metadata>
<g transform="translate(0.000000,1557.000000) scale(0.100000,-0.100000)"
fill="#000000" stroke="none">
<path d="M5273 15547 c-24 -9 -70 -34 -101 -55 -97 -65 -194 -120 -262 -148
-71 -28 -85 -34 -270 -119 -172 -79 -311 -150 -390 -200 -19 -12 -69 -41 -110
-65 -137 -80 -250 -224 -250 -319 0 -23 -1 -41 -3 -41 -2 0 -79 -28 -173 -63
-212 -80 -297 -106 -504 -156 -193 -46 -273 -63 -315 -67 -127 -10 -279 -54
-452 -131 -231 -101 -404 -219 -557 -380 -32 -35 -63 -60 -69 -56 -6 3 -7 1
-3 -6 4 -6 -8 -34 -29 -63 -62 -85 -149 -271 -162 -343 -7 -38 -11 -70 -12
-88 -1 -11 -6 -15 -13 -11 -7 4 -8 3 -4 -4 4 -6 2 -31 -5 -54 -6 -24 -13 -50
-15 -58 -2 -8 -8 -33 -13 -54 -5 -21 -13 -42 -18 -45 -4 -3 -9 -15 -10 -26 -4
-41 -16 -80 -27 -90 -6 -5 -12 -28 -13 -50 -2 -22 -7 -41 -12 -43 -5 -2 -6
-12 -3 -24 3 -12 1 -19 -4 -16 -5 3 -10 -8 -11 -26 -1 -30 -52 -267 -95 -446
-27 -113 -78 -349 -82 -380 -2 -14 -15 -81 -30 -150 -15 -69 -33 -159 -41
-200 -8 -41 -19 -95 -24 -120 -6 -25 -22 -108 -36 -185 -50 -275 -57 -311 -71
-378 -8 -37 -30 -145 -49 -240 -18 -95 -43 -215 -55 -267 -35 -162 -71 -333
-80 -385 -5 -27 -15 -84 -23 -125 -9 -41 -27 -142 -42 -225 -15 -82 -40 -217
-57 -300 -16 -82 -34 -177 -40 -210 -10 -61 -14 -86 -41 -235 -9 -47 -23 -125
-31 -175 -9 -49 -20 -112 -26 -140 -5 -27 -21 -120 -35 -205 -13 -85 -29 -182
-35 -215 -6 -33 -12 -76 -14 -95 -6 -63 -27 -193 -46 -290 -33 -171 -51 -300
-61 -440 -1 -22 -18 -200 -29 -310 -12 -115 -19 -177 -65 -575 -19 -170 -40
-355 -45 -410 -6 -55 -12 -109 -14 -120 -3 -11 -12 -78 -20 -150 -9 -71 -19
-148 -22 -170 -3 -22 -9 -76 -14 -120 -4 -44 -19 -168 -33 -275 -14 -107 -29
-230 -32 -273 -4 -43 -11 -93 -16 -110 -5 -18 -12 -59 -14 -92 -7 -87 -24
-229 -46 -390 -10 -77 -24 -174 -29 -215 -19 -138 -39 -393 -46 -575 -3 -99
-9 -223 -13 -275 -15 -202 8 -539 54 -800 7 -41 19 -109 25 -150 31 -205 69
-368 92 -397 6 -7 19 -13 29 -13 11 0 19 -5 19 -10 0 -6 15 -16 33 -24 112
-48 137 -62 183 -104 122 -113 142 -341 54 -622 -56 -179 -57 -186 -26 -213
24 -21 31 -22 255 -22 127 0 231 4 231 9 0 4 15 6 33 3 17 -2 66 2 107 9 41 8
80 12 88 9 8 -3 19 -2 25 2 6 4 34 8 62 9 27 1 50 2 50 3 0 5 189 16 270 15
101 0 164 -6 182 -17 20 -12 62 11 69 38 8 33 -10 129 -43 225 -48 139 -36
270 35 380 86 135 122 195 122 206 0 12 9 21 111 113 26 23 49 54 52 69 30
144 52 213 101 311 77 154 129 279 166 401 18 58 47 152 65 210 50 158 92 330
115 470 27 168 40 221 52 214 5 -3 8 -18 7 -32 -1 -15 1 -34 4 -42 3 -8 8 -53
11 -100 11 -184 30 -379 46 -474 7 -43 6 -63 -2 -74 -9 -10 -9 -15 -1 -20 20
-13 38 -206 36 -388 -2 -141 -24 -432 -43 -552 -11 -67 -20 -137 -20 -155 0
-44 31 -125 67 -178 27 -39 59 -108 121 -264 57 -142 69 -415 26 -600 -14 -60
-29 -131 -34 -157 -5 -27 -11 -52 -15 -58 -3 -5 -1 -17 4 -27 5 -10 15 -45 22
-78 13 -60 99 -205 122 -205 6 0 7 -3 4 -7 -4 -3 7 -14 23 -24 17 -11 30 -24
30 -29 0 -6 5 -8 10 -5 5 3 10 2 10 -3 0 -5 7 -9 15 -9 18 0 119 -45 123 -55
2 -4 10 -4 18 -1 8 3 14 1 14 -3 0 -5 10 -10 23 -11 35 -4 56 -9 63 -15 3 -4
12 -4 19 -2 7 3 38 -2 69 -11 31 -9 60 -13 66 -10 6 4 16 2 23 -3 15 -12 370
-7 712 11 22 1 45 5 50 8 6 3 42 5 80 4 39 -1 75 1 80 4 12 7 50 10 173 12 50
1 92 5 92 10 0 5 24 8 53 8 47 -1 136 3 342 15 39 3 78 5 88 5 71 0 160 4 327
16 58 4 182 7 275 8 108 0 155 3 130 8 -25 4 -8 5 43 2 56 -3 93 -1 114 8 24
10 33 10 36 1 5 -15 32 -16 32 -1 0 6 23 10 58 9 31 -1 102 2 157 6 131 9 544
8 665 -1 182 -14 226 -17 345 -18 66 0 109 -3 95 -7 -34 -9 350 -14 1075 -14
609 -1 745 2 745 15 0 4 11 6 25 4 14 -1 25 2 25 8 0 6 3 8 6 5 3 -4 21 0 40
8 19 8 39 12 44 9 6 -4 10 -2 10 3 0 5 6 9 13 9 6 0 26 4 42 8 17 4 38 7 48 8
9 1 17 4 17 8 0 4 12 6 26 4 14 -1 39 4 55 12 27 13 69 25 97 26 6 0 12 3 12
7 0 4 6 7 13 8 44 3 96 27 178 80 134 87 159 115 242 276 20 37 20 43 6 120
-17 99 -16 285 3 386 8 41 41 156 73 255 76 237 79 251 65 302 -15 50 -10 355
5 360 6 1 9 22 8 45 -3 57 14 188 42 320 14 70 18 109 11 111 -7 2 -5 62 7
188 9 101 16 209 16 241 0 31 4 59 10 62 10 7 9 45 -2 63 -9 14 4 384 13 378
3 -2 17 -39 29 -82 61 -203 279 -855 336 -1003 62 -159 63 -165 37 -213 -29
-55 -82 -211 -82 -239 0 -13 12 -43 25 -68 89 -163 119 -243 136 -360 22 -148
18 -241 -14 -341 -49 -153 -29 -257 46 -242 17 4 47 15 65 26 32 19 40 19 140
7 59 -7 117 -13 129 -14 13 -2 26 -5 29 -9 4 -3 19 -3 35 0 18 3 29 1 29 -6 0
-14 47 -15 55 -1 4 6 11 7 17 4 18 -11 658 -14 658 -3 0 6 9 8 19 4 11 -3 22
-1 26 5 3 6 10 8 15 5 13 -8 72 19 94 43 25 29 18 92 -25 197 -43 109 -62 226
-57 355 7 170 50 243 167 281 36 12 71 25 76 29 6 4 22 10 36 14 31 7 65 58
75 113 3 21 15 71 26 112 34 130 50 223 58 341 10 130 13 761 5 920 -3 58 -7
152 -10 210 -2 58 -11 204 -20 325 -8 121 -16 268 -17 327 -2 60 -6 108 -9
108 -3 0 -10 62 -14 138 -9 152 -9 150 -25 312 -6 63 -13 149 -16 190 -4 75
-22 302 -46 585 -7 83 -13 187 -13 232 0 45 -3 75 -7 65 -8 -20 -10 17 -23
348 -7 209 -27 445 -55 664 -10 82 -17 153 -14 157 2 4 0 10 -6 14 -5 3 -10
20 -10 37 0 16 -9 85 -20 152 -11 66 -29 191 -40 276 -11 85 -25 184 -30 220
-10 71 -37 332 -45 445 -3 39 -7 90 -10 115 -5 43 -7 75 -20 250 -3 41 -10
116 -16 165 -46 432 -60 584 -57 607 3 15 1 25 -3 22 -4 -2 -10 22 -14 53 -3
32 -11 89 -16 127 -7 51 -7 71 2 76 8 6 8 9 0 11 -6 2 -24 93 -41 209 -16 113
-39 264 -50 335 -12 72 -28 173 -36 225 -9 52 -19 120 -24 150 -18 105 -51
356 -75 570 -14 118 -29 235 -34 260 -6 25 -12 61 -15 80 -7 57 -27 173 -30
179 -2 3 -5 35 -7 71 -2 36 -7 71 -12 77 -5 7 -6 29 -3 48 4 20 3 35 -3 35 -7
0 -23 70 -26 115 0 6 -4 16 -9 23 -4 7 -2 19 4 27 10 12 10 15 0 15 -7 0 -10
6 -7 14 3 8 3 17 0 20 -6 6 -14 51 -16 99 -1 15 -5 27 -9 27 -4 0 -6 15 -6 33
0 17 -3 55 -7 82 -4 28 -7 61 -8 75 -1 14 -5 28 -10 31 -4 3 -8 35 -10 72 -1
37 -5 67 -8 67 -3 0 -6 7 -6 15 0 8 -5 38 -11 67 -6 29 -22 109 -36 178 -14
69 -39 184 -57 255 -34 144 -59 265 -63 308 -2 16 -18 44 -38 65 -19 20 -59
73 -88 117 -59 90 -202 243 -300 323 -77 63 -169 117 -265 156 -38 16 -101 42
-140 58 -38 17 -79 34 -90 39 -99 40 -485 147 -635 175 -36 6 -279 83 -405
128 -116 41 -247 95 -291 121 l-42 25 2 65 c1 37 -2 65 -8 65 -5 0 -7 3 -3 6
3 3 -3 15 -13 27 -11 11 -17 25 -13 30 3 6 2 7 -4 4 -5 -3 -50 38 -99 91 -277
301 -388 398 -549 476 -49 24 -101 47 -115 51 -14 4 -47 28 -75 53 -62 55
-120 93 -154 99 -83 15 -122 14 -149 -3 -23 -15 -69 -29 -122 -37 -8 -1 -23
-14 -33 -30 -25 -40 -86 -57 -124 -34 -6 4 -18 4 -27 1 -9 -3 -16 -2 -16 3 0
4 -24 9 -52 11 -124 5 -144 7 -157 16 -8 5 -17 4 -23 -5 -7 -11 -11 -11 -15
-1 -6 14 -39 16 -48 2 -3 -5 -38 -9 -78 -10 -262 0 -437 -5 -437 -10 0 -4 -26
-8 -57 -10 -32 -1 -69 -3 -83 -4 -14 -1 -40 2 -58 7 -23 6 -38 5 -49 -4 -18
-16 -281 -19 -286 -4 -2 6 -10 4 -20 -4 -10 -8 -24 -10 -34 -6 -10 4 -25 9
-33 10 -49 8 -101 16 -142 22 -27 3 -48 9 -48 13 0 4 -25 6 -55 4 -30 -2 -55
0 -55 5 0 6 -87 9 -216 7 l-216 -2 4 43 c2 24 0 43 -4 43 -5 0 -8 7 -8 16 0
27 -25 42 -79 45 -34 3 -68 -2 -98 -14z m732 -1182 c26 -25 35 -88 15 -100 -6
-4 -10 8 -10 29 0 40 -18 62 -59 71 -54 12 -100 -32 -81 -77 5 -13 17 -33 26
-45 15 -21 15 -23 0 -23 -20 0 -56 56 -56 87 0 12 12 35 26 52 22 26 33 31 70
31 34 0 51 -6 69 -25z m1010 -49 c56 -24 73 -83 35 -127 -22 -27 -25 -22 -9
15 24 52 -13 96 -81 96 -35 0 -60 -31 -61 -75 0 -28 -1 -29 -11 -8 -16 32 8
82 46 99 39 17 40 17 81 0z m-450 -35 c9 -28 87 -89 120 -93 40 -4 45 -28 6
-28 -23 0 -43 13 -86 56 -47 46 -59 53 -68 41 -14 -17 -47 -30 -47 -18 0 5 9
11 20 14 12 3 20 14 20 26 0 26 27 28 35 2z m-129 -23 c4 -7 3 -8 -5 -4 -7 5
-29 -8 -55 -32 -48 -44 -80 -64 -89 -55 -4 3 11 14 32 25 21 10 51 32 66 48
31 33 40 36 51 18z m18 -34 c3 -8 2 -12 -4 -9 -6 3 -10 10 -10 16 0 14 7 11
14 -7z m-185 -130 c24 -64 24 -64 12 -64 -4 0 -19 24 -32 53 -12 28 -25 55
-27 60 -2 4 3 7 11 7 8 0 23 -24 36 -56z m147 -50 c-7 -17 -58 -18 -74 -2 -18
18 -16 78 3 78 11 0 15 -11 15 -40 0 -33 3 -40 20 -40 17 0 20 7 20 38 0 21 3
42 8 46 8 9 16 -60 8 -80z m92 69 c-13 -3 -18 -15 -18 -44 0 -21 -4 -39 -10
-39 -5 0 -10 20 -10 45 0 43 1 45 28 44 16 -1 20 -3 10 -6z m132 -18 c0 -12
-3 -13 -19 -3 -36 22 -69 -30 -39 -60 7 -7 8 -12 2 -12 -17 0 -34 23 -34 45 0
30 19 45 57 45 23 0 33 -5 33 -15z m-200 -115 c0 -13 -12 -19 -26 -13 -21 8
-17 19 6 19 11 0 20 -3 20 -6z m55 0 c3 -5 1 -10 -4 -10 -6 0 -11 5 -11 10 0
6 2 10 4 10 3 0 8 -4 11 -10z m3768 -11523 c7 -19 -8 -40 -25 -35 -12 2 -13 9
-7 26 9 25 24 29 32 9z m-73 -106 c0 -23 -9 -31 -26 -24 -17 6 -18 25 -2 41
14 14 28 6 28 -17z m105 -17 c0 -10 -8 -20 -17 -22 -18 -3 -26 27 -11 42 12
11 28 0 28 -20z m-110 -200 c-23 -17 -34 -2 -14 22 9 11 15 12 23 4 8 -8 6
-15 -9 -26z"/>
</g>
</svg>
