<?xml version="1.0" standalone="no"?>
<!DOCTYPE svg PUBLIC "-//W3C//DTD SVG 20010904//EN"
 "http://www.w3.org/TR/2001/REC-SVG-20010904/DTD/svg10.dtd">
<svg version="1.0" xmlns="http://www.w3.org/2000/svg"
 width="233.11777" height="192.51614" viewBox="0 0 450.000000 450.000000"
 preserveAspectRatio="xMidYMid meet">

<g transform="translate(0.000000,450.000000) scale(0.100000,-0.100000)"
fill="#000000" stroke="none">
<path d="M2055 3819 c-374 -30 -666 -102 -818 -203 -104 -69 -101 -60 -107
-374 l-5 -274 -28 -24 c-29 -24 -38 -27 -207 -64 -352 -75 -627 -244 -759
-468 -51 -85 -98 -214 -107 -294 -4 -32 -11 -58 -15 -58 -11 0 -12 -183 -1
-195 5 -6 14 -40 21 -78 48 -275 255 -514 581 -670 178 -85 267 -104 542 -117
108 -5 205 -13 215 -19 12 -6 29 -44 47 -103 59 -192 100 -249 221 -303 210
-94 476 -135 876 -135 462 0 788 53 950 155 124 77 177 214 259 665 12 63 27
147 35 185 43 217 122 796 149 1085 50 524 48 959 -2 1030 -78 108 -370 201
-772 246 -169 19 -895 28 -1075 13z m800 -9 c325 -21 576 -62 740 -120 148
-53 204 -89 225 -144 15 -40 6 -59 -46 -105 -250 -220 -1420 -304 -2152 -155
-277 57 -432 137 -432 224 0 122 342 237 845 285 268 25 574 31 820 15z m725
-509 c-8 -5 -33 -12 -55 -15 l-40 -6 40 14 c48 17 79 20 55 7z m-2486 -697
c25 -9 48 -19 50 -23 3 -4 16 -115 31 -246 46 -427 99 -825 125 -939 12 -53
-7 -88 -68 -123 -47 -28 -47 -28 -227 -27 -160 1 -191 4 -276 26 -321 86 -488
295 -489 611 0 328 178 587 480 697 138 51 270 59 374 24z"/>
</g>
</svg>
