<?xml version="1.0" standalone="no"?><svg xmlns="http://www.w3.org/2000/svg" viewBox="0 0 1440 320"><path fill="#273036" fill-opacity="1" d="M0,64L18.5,64C36.9,64,74,64,111,96C147.7,128,185,192,222,234.7C258.5,277,295,299,332,266.7C369.2,235,406,149,443,144C480,139,517,213,554,202.7C590.8,192,628,96,665,85.3C701.5,75,738,149,775,192C812.3,235,849,245,886,250.7C923.1,256,960,256,997,250.7C1033.8,245,1071,235,1108,202.7C1144.6,171,1182,117,1218,128C1255.4,139,1292,213,1329,229.3C1366.2,245,1403,203,1422,181.3L1440,160L1440,320L1421.5,320C1403.1,320,1366,320,1329,320C1292.3,320,1255,320,1218,320C1181.5,320,1145,320,1108,320C1070.8,320,1034,320,997,320C960,320,923,320,886,320C849.2,320,812,320,775,320C738.5,320,702,320,665,320C627.7,320,591,320,554,320C516.9,320,480,320,443,320C406.2,320,369,320,332,320C295.4,320,258,320,222,320C184.6,320,148,320,111,320C73.8,320,37,320,18,320L0,320Z"></path></svg>