<?xml version="1.0" standalone="no"?><svg xmlns="http://www.w3.org/2000/svg" viewBox="0 0 1440 320"><path fill="#041C32" fill-opacity="1" d="M0,96L8.9,80C17.8,64,36,32,53,32C71.1,32,89,64,107,74.7C124.4,85,142,75,160,69.3C177.8,64,196,64,213,96C231.1,128,249,192,267,208C284.4,224,302,192,320,181.3C337.8,171,356,181,373,154.7C391.1,128,409,64,427,53.3C444.4,43,462,85,480,122.7C497.8,160,516,192,533,192C551.1,192,569,160,587,165.3C604.4,171,622,213,640,240C657.8,267,676,277,693,256C711.1,235,729,181,747,144C764.4,107,782,85,800,106.7C817.8,128,836,192,853,197.3C871.1,203,889,149,907,122.7C924.4,96,942,96,960,117.3C977.8,139,996,181,1013,181.3C1031.1,181,1049,139,1067,138.7C1084.4,139,1102,181,1120,181.3C1137.8,181,1156,139,1173,144C1191.1,149,1209,203,1227,218.7C1244.4,235,1262,213,1280,224C1297.8,235,1316,277,1333,256C1351.1,235,1369,149,1387,133.3C1404.4,117,1422,171,1431,197.3L1440,224L1440,0L1431.1,0C1422.2,0,1404,0,1387,0C1368.9,0,1351,0,1333,0C1315.6,0,1298,0,1280,0C1262.2,0,1244,0,1227,0C1208.9,0,1191,0,1173,0C1155.6,0,1138,0,1120,0C1102.2,0,1084,0,1067,0C1048.9,0,1031,0,1013,0C995.6,0,978,0,960,0C942.2,0,924,0,907,0C888.9,0,871,0,853,0C835.6,0,818,0,800,0C782.2,0,764,0,747,0C728.9,0,711,0,693,0C675.6,0,658,0,640,0C622.2,0,604,0,587,0C568.9,0,551,0,533,0C515.6,0,498,0,480,0C462.2,0,444,0,427,0C408.9,0,391,0,373,0C355.6,0,338,0,320,0C302.2,0,284,0,267,0C248.9,0,231,0,213,0C195.6,0,178,0,160,0C142.2,0,124,0,107,0C88.9,0,71,0,53,0C35.6,0,18,0,9,0L0,0Z"></path></svg>